# AST/ASF file generated using VICON BodyLanguage
# -----------------------------------------------
:version 1.10
:name VICON
:units
  mass 1.0
  length 0.45
  angle deg
:documentation
   .ast/.asf automatically generated from VICON data using
   VICON BodyBuilder and BodyLanguage model FoxedUp or BRILLIANT.MOD
:root
   order TX TY TZ RX RY RZ
   axis XYZ
   position 0 0 0  
   orientation 0 0 0 
:bonedata
  begin
     id 1 
     name lhipjoint
     direction 0.535335 -0.74333 0.401095 
     length 2.04549 
     axis 0 0 0  XYZ
  end
  begin
     id 2 
     name lfemur
     direction 0.34202 -0.939693 0  
     length 6.95643  
     axis 0 0 20  XYZ
    dof rx ry rz
    limits (-160.0 20.0)
           (-70.0 70.0)
           (-60.0 70.0)
  end
  begin
     id 3 
     name ltibia
     direction 0.34192 -0.939729 0   
     length 5.55969   
     axis 0 0 20   XYZ
    dof rx
    limits (-10.0 170.0)
  end
  begin
     id 4 
     name lfoot
     direction 0.216943 -0.596046 0.773088   
     length 2.27918   
     axis -90 7.62852e-016 20   XYZ
    dof rx rz
    limits (-45.0 90.0)
           (-70.0 20.0)
  end
  begin
     id 5 
     name ltoes
     direction 1.53519e-011 -4.21748e-011 1   
     length 1.05562   
     axis -90 7.62852e-016 20   XYZ
    dof rx
    limits (-90.0 20.0)
  end
  begin
     id 6 
     name rhipjoint
     direction -0.576368 -0.719173 0.38806   
     length 2.1142  
     axis 0 0 0  XYZ 
  end
  begin
     id 7 
     name rfemur
     direction -0.34202 -0.939693 0   
     length 7.07928   
     axis 0 0 -20   XYZ
    dof rx ry rz
    limits (-160.0 20.0)
           (-70.0 70.0)
           (-70.0 60.0)
  end
  begin
     id 8 
     name rtibia
     direction -0.34202 -0.939693 0   
     length 5.79974   
     axis 0 0 -20   XYZ
    dof rx
    limits (-10.0 170.0)
 end
 begin
     id 9 
     name rfoot
     direction -0.189288 -0.520065 0.832888   
     length 2.42173  
     axis -90 -7.62852e-016 -20   XYZ
    dof rx rz
    limits (-45.0 90.0)
           (-20.0 70.0)
  end
  begin
     id 10 
     name rtoes
     direction -1.53574e-011 -4.21658e-011 1   
     length 1.14469   
     axis -90 -7.62852e-016 -20   XYZ
    dof rx
    limits (-90.0 20.0)
  end
  begin
     id 11 
     name lowerback
     direction -0.00135702 0.993803 0.111144   
     length 1.91308   
     axis 0 0 0   XYZ
    dof rx ry rz
    limits (-20.0 45.0)
           (-30.0 30.0)
           (-30.0 30.0)
  end
  begin
     id 12 
     name upperback
     direction -0.0056745 0.999813 0.0184631   
     length 1.9212   
     axis 0 0 0   XYZ
    dof rx ry rz
    limits (-20.0 45.0)
           (-30.0 30.0)
           (-30.0 30.0)
  end
  begin
     id 13 
     name thorax
     direction -0.00733434 0.999426 -0.0330788   
     length 1.94196   
     axis 0 0 0   XYZ
    dof rx ry rz
    limits (-20.0 45.0)
           (-30.0 30.0)
           (-30.0 30.0)
  end
  begin
     id 14 
     name lowerneck
     direction 0.0563074 0.996944 -0.0541571   
     length 2.34257   
     axis 0 0 0   XYZ
    dof rx ry rz
    limits (-20.0 45.0)
           (-30.0 30.0)
           (-30.0 30.0)
  end
  begin
     id 15 
     name upperneck
     direction -0.0544519 0.976166 -0.210085   
     length 2.32506   
     axis 0 0 0   XYZ
    dof rx ry rz
    limits (-20.0 45.0)
           (-30.0 30.0)
           (-30.0 30.0)
  end
  begin
     id 16
     name head
     direction -0.0226035 0.997615 -0.0652205  
     length 2.3648  
     axis 0 0 0   XYZ
    dof rx ry rz
    limits (-20.0 45.0)
           (-30.0 30.0)
           (-30.0 30.0)
  end
  begin
     id 17 
     name lclavicle
     direction 0.92109 0.381297 -0.0787716  
     length 4.0487  
     axis 0 0 0   XYZ
    dof ry rz
    limits (-20.0 10.0)
           (0.0 20.0)
  end
  begin
     id 18 
     name lhumerus
     direction 1 -4.48986e-011 3.56724e-027   
     length 4.94991   
     axis 180 -30 -90   XYZ
    dof rx ry rz
    limits (-60.0 90.0)
           (-90.0 90.0)
           (-90.0 90.0)
  end
  begin
     id 19
     name lradius
     direction 1 -4.48981e-011 8.62147e-027   
     length 2.7606   
     axis 180 -30 -90   XYZ
    dof rx
    limits (-10.0 170.0)
  end
  begin
     id 20
     name lwrist
     direction 1 -4.48989e-011 1.59799e-026   
     length 1.3803   
     axis -1.17785e-014 90 90   XYZ
    dof ry
    limits (-180.0 0.0)
 end
  begin
     id 21 
     name lhand
     direction 1 -4.48896e-011 3.19599e-026   
     length 0.843936   
     axis -2.03931e-014 90 90   XYZ
    dof rx rz
    limits (-90.0 90.0)
           (-45.0 45.0)
  end
  begin
     id 22 
     name lfingers
     direction 1 -4.48887e-011 6.39197e-026   
     length 0.680403   
     axis -4.07862e-014 90 90   XYZ
    dof rx
    limits (0.0 90.0)
  end
  begin
     id 23
     name lthumb
     direction 0.707107 -6.348e-011 0.707107   
     length 0.976926   
     axis -90 45 2.85299e-015   XYZ
    dof rx rz
    limits (-45.0 45.0)
           (-45.0 45.0)
  end
  begin
     id 24 
     name rclavicle
     direction -0.951104 0.307692 -0.026953   
     length 4.21801  
     axis 0 0 0   XYZ 
    dof ry rz
    limits (-10.0 20.0)
           (-20.0 0.0)
  end
  begin
     id 25 
     name rhumerus
     direction -1 -4.4896e-011 -1.8171e-018  
     length 4.32982   
     axis 180 30 90   XYZ
    dof rx ry rz
    limits (-90.0 60.0)
           (-90.0 90.0)
           (-90.0 90.0)
  end
  begin
     id 26 
     name rradius
     direction -1 -4.48959e-011 8.25165e-027   
     length 3.20057   
     axis 180 30 90   XYZ
    dof rx
    limits (-10.0 170.0)
  end
  begin
     id 27 
     name rwrist
     direction -1 -4.48997e-011 1.59799e-026   
     length 1.60029   
     axis -1.17785e-014 -90 -90   XYZ
    dof ry
    limits (-180.0 0.0)
  end
  begin
     id 28
     name rhand
     direction -1 -4.49023e-011 3.19599e-026   
     length 0.960433   
     axis -2.03931e-014 -90 -90   XYZ
    dof rx rz
    limits (-90.0 90.0)
           (-45.0 45.0)
  end
  begin
     id 29
     name rfingers
     direction -1 -4.48802e-011 6.39197e-026   
     length 0.774326   
     axis -4.07862e-014 -90 -90   XYZ
    dof rx
    limits (0.0 90.0)
  end
  begin
     id 30
     name rthumb
     direction -0.707107 -6.34876e-011 0.707107   
     length 1.11178   
     axis -90 -45 -2.85299e-015   XYZ
    dof rx rz
    limits (-45.0 45.0)
           (-45.0 45.0)
  end
:hierarchy
  begin
    root lhipjoint rhipjoint lowerback
    lhipjoint lfemur
    lfemur ltibia
    ltibia lfoot
    lfoot ltoes
    rhipjoint rfemur
    rfemur rtibia
    rtibia rfoot
    rfoot rtoes
    lowerback upperback
    upperback thorax
    thorax lowerneck lclavicle rclavicle
    lowerneck upperneck
    upperneck head
    lclavicle lhumerus
    lhumerus lradius
    lradius lwrist
    lwrist lhand lthumb
    lhand lfingers
    rclavicle rhumerus
    rhumerus rradius
    rradius rwrist
    rwrist rhand rthumb
    rhand rfingers
end

#!OML:ASF C:\KaitlinTest1\Natural Motions\Nikki\Session 2\Nikki.ASF
:FULLY-SPECIFIED
:DEGREES
306
root -18.9206 16.6328 5.0525 -154.274 85.7211 -164.105
lowerback -13.3773 -1.63378 -0.0877187
upperback -3.98671 -1.94674 -0.538463
thorax 3.28605 -0.889485 -0.817404
lowerneck -1.99422 1.56502 8.46197
upperneck 27.2987 3.78393 -5.5643
head 9.10179 2.50813 -3.00044
rclavicle -4.89507e-015 -7.55382e-015
rhumerus -42.462 -22.5039 -79.0382
rradius 18.296
rwrist 29.3708
rhand -36.0061 3.25508
rfingers 7.12502
rthumb -9.11572 -26.5279
lclavicle -4.89507e-015 -7.55382e-015
lhumerus -42.0728 16.1328 80.327
lradius 23.9608
lwrist -39.9111
lhand -32.8158 3.49441
lfingers 7.12502
lthumb -6.0364 33.3884
rfemur -7.82624 -16.8873 21.0792
rtibia 11.2174
rfoot -10.6042 12.0473
rtoes -5.64548e-014
lfemur -10.0476 11.9436 -17.8798
ltibia 9.82698
lfoot -2.03187 -16.7095
ltoes -2.70347e-014
307
root -18.9206 16.634 5.05331 -154.309 85.7138 -164.197
lowerback -13.458 -1.63527 -0.0837488
upperback -3.98203 -1.94768 -0.545282
thorax 3.33427 -0.889393 -0.829333
lowerneck -2.00297 1.57518 8.47868
upperneck 27.2744 3.79439 -5.5719
head 9.09617 2.51265 -3.00479
rclavicle -1.98536e-014 -9.93923e-015
rhumerus -42.427 -22.4623 -79.1132
rradius 18.3418
rwrist 29.2954
rhand -35.9217 3.08508
rfingers 7.12502
rthumb -9.03425 -26.7015
lclavicle -1.98536e-014 -9.93923e-015
lhumerus -42.0516 16.147 80.309
lradius 23.9526
lwrist -39.9628
lhand -32.8164 3.52728
lfingers 7.12502
lthumb -6.03699 33.4213
rfemur -7.8967 -16.8792 21.0895
rtibia 11.2294
rfoot -10.5892 12.0464
rtoes -6.20208e-014
lfemur -10.1211 11.9363 -17.894
ltibia 9.83052
lfoot -2.01188 -16.7038
ltoes -1.90833e-014
308
root -18.9216 16.6333 5.05348 -154.278 85.7265 -164.138
lowerback -13.4041 -1.63368 -0.0814317
upperback -3.98643 -1.9468 -0.54258
thorax 3.30049 -0.889318 -0.82603
lowerneck -1.99174 1.57527 8.47534
upperneck 27.2874 3.79925 -5.57687
head 9.09903 2.51505 -3.00574
rclavicle 1.37161e-014 1.03368e-014
rhumerus -42.4382 -22.4655 -79.0853
rradius 18.3151
rwrist 29.3638
rhand -35.9654 3.20174
rfingers 7.12502
rthumb -9.07639 -26.583
lclavicle 1.37161e-014 1.03368e-014
lhumerus -42.0698 16.1385 80.3167
lradius 23.942
lwrist -39.8981
lhand -32.8149 3.55058
lfingers 7.12502
lthumb -6.03553 33.4446
rfemur -7.8727 -16.918 21.0887
rtibia 11.2351
rfoot -10.6129 12.088
rtoes 2.78299e-014
lfemur -10.0961 11.9495 -17.8846
ltibia 9.83983
lfoot -2.02054 -16.7107
ltoes -4.77083e-015
309
root -18.921 16.6333 5.05388 -154.445 85.728 -164.315
lowerback -13.4054 -1.64022 -0.0918562
upperback -4.00156 -1.95317 -0.545558
thorax 3.28553 -0.892226 -0.824026
lowerneck -1.94435 1.58033 8.48358
upperneck 27.2627 3.81075 -5.58392
head 9.0827 2.52125 -3.0088
rclavicle -5.2181e-016 -1.19271e-015
rhumerus -42.4687 -22.463 -79.0764
rradius 18.3233
rwrist 29.3642
rhand -35.985 3.26835
rfingers 7.12502
rthumb -9.09533 -26.5155
lclavicle -5.2181e-016 -1.19271e-015
lhumerus -42.1113 16.1644 80.2743
lradius 23.9646
lwrist -39.9078
lhand -32.8308 3.53597
lfingers 7.12502
lthumb -6.05086 33.4296
rfemur -7.8814 -16.9139 21.0778
rtibia 11.2384
rfoot -10.5979 12.0719
rtoes 6.99722e-014
lfemur -10.1064 11.9459 -17.8965
ltibia 9.84385
lfoot -2.01324 -16.7133
ltoes 4.45278e-014
310
root -18.9223 16.6336 5.05474 -154.216 85.7011 -164.115
lowerback -13.4244 -1.63938 -0.0685325
upperback -4.00537 -1.9553 -0.531402
thorax 3.29151 -0.893043 -0.823215
lowerneck -1.96163 1.58092 8.45457
upperneck 27.2806 3.81001 -5.56466
head 9.0913 2.52004 -2.9971
rclavicle 3.03892e-014 4.37326e-015
rhumerus -42.4286 -22.3864 -79.1361
rradius 18.36
rwrist 29.2268
rhand -35.9153 3.10888
rfingers 7.12502
rthumb -9.02805 -26.6779
lclavicle 3.03892e-014 4.37326e-015
lhumerus -42.1037 16.1378 80.3119
lradius 23.9545
lwrist -39.917
lhand -32.8574 3.55463
lfingers 7.12502
lthumb -6.07655 33.4475
rfemur -7.91407 -16.9084 21.1192
rtibia 11.2349
rfoot -10.6017 12.0489
rtoes -4.77083e-015
lfemur -10.1533 11.9306 -17.8701
ltibia 9.8566
lfoot -2.00794 -16.7349
ltoes 3.49861e-014
311
root -18.9215 16.6341 5.0547 -154.433 85.7284 -164.346
lowerback -13.4469 -1.63856 -0.088134
upperback -4.00818 -1.95086 -0.536586
thorax 3.30131 -0.890649 -0.817479
lowerneck -1.95645 1.58978 8.48495
upperneck 27.2939 3.8309 -5.60053
head 9.09785 2.53024 -3.01327
rclavicle -4.33102e-014 -1.23246e-014
rhumerus -42.4707 -22.5309 -78.9957
rradius 18.2724
rwrist 29.5275
rhand -36.044 3.40177
rfingers 7.12502
rthumb -9.1523 -26.3796
lclavicle -4.33102e-014 -1.23246e-014
lhumerus -42.1105 16.1709 80.2871
lradius 23.944
lwrist -39.8744
lhand -32.8389 3.54281
lfingers 7.12502
lthumb -6.05872 33.4362
rfemur -7.93951 -16.9159 21.0954
rtibia 11.2556
rfoot -10.615 12.0715
rtoes -4.13472e-014
lfemur -10.1528 11.9475 -17.9043
ltibia 9.8306
lfoot -2.00844 -16.7113
ltoes -9.54166e-015
